<?xml version="1.0" encoding="UTF-8" standalone="no"?>
<svg
   viewBox="0 0 142.528 131.8"
   version="1.1"
   height="131.8pt"
   width="142.528pt"
   id="svg218"
   xmlns="http://www.w3.org/2000/svg"
   xmlns:svg="http://www.w3.org/2000/svg"
   xmlns:rdf="http://www.w3.org/1999/02/22-rdf-syntax-ns#"
   xmlns:cc="http://creativecommons.org/ns#"
   xmlns:dc="http://purl.org/dc/elements/1.1/">
  <title
     id="title177">Chemical structural formula of polyethylene.eps</title>
  <defs
     id="defs182">
    <clipPath
       id="Clip0">
      <path
         d="M 0,0 H 122.528 V 111.8 H 0 Z"
         id="path179" />
    </clipPath>
  </defs>
  <g
     id="Hintergrund"
     transform="translate(-169.37143,-4.4571428)">
    <g
       clip-rule="evenodd"
       style="fill:none;stroke:none"
       id="Gruppe1"
       transform="translate(179.37143,14.457144)"
       clip-path="url(#Clip0)">
      <path
         d="M 14.7344,5.64062 C 14.0469,1.875 11.8438,0 8,0 5.64062,0 3.75,0.75 2.45312,2.1875 0.875,3.875 0,6.3125 0,9.07812 0,11.8906 0.890625,14.3125 2.53125,15.9688 3.89062,17.3594 5.625,18 7.90625,18 12.1719,18 14.5781,15.7188 15.0938,11.1875 H 12.7969 C 12.6094,12.3594 12.3594,13.1562 12,13.8438 11.2812,15.25 9.79688,16.0469 7.92188,16.0469 c -3.48438,0 -5.6875,-2.7188 -5.6875,-6.9844 0,-4.39062 2.09374,-7.09375 5.5,-7.09375 1.42187,0 2.73442,0.40625 3.45312,1.09375 0.6563,0.57812 1.0156,1.28125 1.2656,2.57812 z"
         style="fill:#000000;fill-rule:nonzero;stroke:none"
         transform="translate(32.1406,44.45)"
         id="path184" />
      <path
         d="M 0,1.7 H 29.95 V 0 H 0 Z"
         style="fill:#000000;fill-rule:nonzero;stroke:none"
         transform="translate(0,52.15)"
         id="path186" />
      <path
         d="M 14.7344,5.64062 C 14.0469,1.875 11.8438,0 8,0 5.64062,0 3.75,0.75 2.45312,2.1875 0.875,3.875 0,6.3125 0,9.07812 0,11.8906 0.890625,14.3125 2.53125,15.9688 3.89062,17.3594 5.625,18 7.90625,18 12.1719,18 14.5781,15.7188 15.0938,11.1875 H 12.7969 C 12.6094,12.3594 12.3594,13.1562 12,13.8438 11.2812,15.25 9.79688,16.0469 7.92188,16.0469 c -3.48438,0 -5.6875,-2.7188 -5.6875,-6.9844 0,-4.39062 2.09374,-7.09375 5.5,-7.09375 1.42187,0 2.73442,0.40625 3.45312,1.09375 0.6563,0.57812 1.0156,1.28125 1.2656,2.57812 z"
         style="fill:#000000;fill-rule:nonzero;stroke:none"
         transform="translate(71.8406,44.45)"
         id="path188" />
      <path
         d="M 0,1.7 H 20 V 0 H 0 Z"
         style="fill:#000000;fill-rule:nonzero;stroke:none"
         transform="translate(49.65,52.15)"
         id="path190" />
      <path
         d="M 0,1.7 H 29.75 V 0 H 0 Z"
         style="fill:#000000;fill-rule:nonzero;stroke:none"
         transform="translate(89.3,52.15)"
         id="path192" />
      <path
         d="M 11.2344,9.96875 V 18 h 2.2344 V 0 H 11.2344 V 8 H 2.23438 V 0 H 0 V 18 H 2.23438 V 9.96875 Z"
         style="fill:#000000;fill-rule:nonzero;stroke:none"
         transform="translate(32.9844,4.75)"
         id="path194" />
      <path
         d="M 0,17.75 H 1.7 V 0 H 0 Z"
         style="fill:#000000;fill-rule:nonzero;stroke:none"
         transform="translate(38.85,24.95)"
         id="path196" />
      <path
         d="M 11.2344,9.96875 V 18 h 2.2344 V 0 H 11.2344 V 8 H 2.23438 V 0 H 0 V 18 H 2.23438 V 9.96875 Z"
         style="fill:#000000;fill-rule:nonzero;stroke:none"
         transform="translate(32.9844,84.1)"
         id="path198" />
      <path
         d="M 0,17.7 H 1.7 V 0 H 0 Z"
         style="fill:#000000;fill-rule:nonzero;stroke:none"
         transform="translate(38.85,64.95)"
         id="path200" />
      <path
         d="M 11.2344,9.96875 V 18 h 2.2344 V 0 H 11.2344 V 8 H 2.23438 V 0 H 0 V 18 H 2.23438 V 9.96875 Z"
         style="fill:#000000;fill-rule:nonzero;stroke:none"
         transform="translate(72.6844,4.75)"
         id="path202" />
      <path
         d="M 0,17.75 H 1.7 V 0 H 0 Z"
         style="fill:#000000;fill-rule:nonzero;stroke:none"
         transform="translate(78.5,24.95)"
         id="path204" />
      <path
         d="M 11.2344,9.96875 V 18 h 2.2344 V 0 H 11.2344 V 8 H 2.23438 V 0 H 0 V 18 H 2.23438 V 9.96875 Z"
         style="fill:#000000;fill-rule:nonzero;stroke:none"
         transform="translate(72.6844,84.1)"
         id="path206" />
      <path
         d="M 0,17.7 H 1.7 V 0 H 0 Z"
         style="fill:#000000;fill-rule:nonzero;stroke:none"
         transform="translate(78.5,64.95)"
         id="path208" />
      <path
         d="M 0,0 H 7.65 V 105.4 H 0"
         style="fill:none;stroke:#000000;stroke-width:1.7;stroke-linecap:butt;stroke-linejoin:miter;stroke-dasharray:none"
         transform="translate(97.8,0.85)"
         id="path210" />
      <path
         d="M 2,0 0,10 H 1.51562 L 2.60938,4.48438 C 3.04688,2.57812 4.3125,1.29688 5.92188,1.29688 6.82812,1.29688 7.5,1.95312 7.5,2.8125 7.5,2.92188 7.45312,3.1875 7.39062,3.51562 L 6.04688,10 H 7.5625 L 9,3 C 9.0625,2.76562 9.07812,2.53125 9.07812,2.29688 9.07812,1.21875 8.45312,0.375 7.51562,0.109375 7.23438,0.046875 6.95312,0 6.625,0 5.26562,0 4.07812,0.5 3.14062,1.45312 L 3.375,0 Z"
         style="fill:#000000;fill-rule:nonzero;stroke:none"
         transform="translate(113.45,101.8)"
         id="path212" />
      <path
         d="M 7.6,105.4 H 0 V 0 h 7.6"
         style="fill:none;stroke:#000000;stroke-width:1.7;stroke-linecap:butt;stroke-linejoin:miter;stroke-dasharray:none"
         transform="translate(13.7,0.85)"
         id="path214" />
    </g>
  </g>
  <metadata
     id="metadata434">
    <rdf:RDF>
      <cc:Work
         rdf:about="">
        <dc:title>Chemical structural formula of polyethylene.eps</dc:title>
      </cc:Work>
    </rdf:RDF>
  </metadata>
</svg>
